<svg width="20" height="20" viewBox="0 0 20 20" fill="none" xmlns="http://www.w3.org/2000/svg">
<path d="M7.63093 17.3095V14.7539C7.63092 14.1039 8.16085 13.5757 8.81743 13.5713H11.2225C11.8822 13.5713 12.417 14.1008 12.417 14.7539V14.7539V17.3175C12.4169 17.8694 12.8618 18.3204 13.4191 18.3334H15.0225C16.6209 18.3334 17.9166 17.0506 17.9166 15.4682V15.4682V8.19822C17.908 7.57571 17.6128 6.99114 17.1149 6.61088L11.6314 2.23777C10.6707 1.47633 9.30509 1.47633 8.34443 2.23777L2.88494 6.61882C2.38513 6.99754 2.08941 7.58308 2.08325 8.20615V15.4682C2.08325 17.0506 3.37898 18.3334 4.97734 18.3334H6.58072C7.15188 18.3334 7.6149 17.875 7.6149 17.3095V17.3095" stroke="#352E5B" stroke-width="1.5" stroke-linecap="round" stroke-linejoin="round"/>
</svg>
