<svg width="166" height="30" viewBox="0 0 166 30" fill="none" xmlns="http://www.w3.org/2000/svg">
<rect x="11.571" y="4" width="16.364" height="16.364" transform="rotate(45 11.571 4)" fill="#9381FF"/>
<rect x="17.4148" y="4.70711" width="15.364" height="15.364" transform="rotate(45 17.4148 4.70711)" stroke="#352E5B"/>
<path d="M44.376 25H47.88L51.216 13.816L54.552 25H58.104L63.072 8.2H59.424L56.184 19.696L52.728 8.2H49.68L46.248 19.696L43.032 8.2H39.384L44.376 25ZM68.115 12.712C64.803 12.712 62.835 14.656 62.691 17.08H65.667C65.715 16.072 66.459 15.16 67.923 15.16C69.291 15.16 70.083 15.856 70.083 16.864C70.083 17.368 69.771 17.752 69.171 17.752H67.131C64.491 17.752 62.715 19.192 62.715 21.568C62.715 23.632 64.323 25.192 66.675 25.192C68.331 25.192 69.675 24.448 70.083 23.32V25H73.395V17.224C73.395 14.488 71.163 12.712 68.115 12.712ZM67.515 22.768C66.579 22.768 65.907 22.216 65.907 21.424C65.907 20.488 66.627 19.864 67.635 19.864H70.083V20.032C70.083 21.568 69.147 22.768 67.515 22.768ZM78.4584 25H81.5304L85.9464 12.904H82.5144L79.9944 20.728L77.4504 12.904H74.0424L78.4584 25ZM94.8354 20.896C94.5714 21.928 93.6834 22.456 92.3394 22.456C90.6594 22.456 89.5794 21.4 89.3394 19.696H98.0274C98.0514 19.432 98.0754 19.072 98.0754 18.616C98.0754 15.856 96.3714 12.712 92.0994 12.712C87.9954 12.712 86.1234 15.856 86.1234 18.928C86.1234 21.976 88.2354 25.192 92.3394 25.192C95.3154 25.192 97.6194 23.512 98.0994 20.896H94.8354ZM92.0994 15.16C93.7074 15.16 94.6434 16.24 94.7394 17.584H89.3874C89.6754 15.904 90.5874 15.16 92.0994 15.16ZM100.471 25H102.463V11.608L107.767 25H109.567L114.871 11.608V25H116.863V8.2H114.199L108.679 22.24L103.135 8.2H100.471V25ZM124.905 12.712C122.193 12.712 119.985 14.44 119.769 16.768H121.593C121.689 15.448 123.081 14.344 124.857 14.344C126.921 14.344 128.097 15.472 128.097 17.128C128.097 17.512 127.857 17.776 127.329 17.776H124.593C121.665 17.776 119.769 19.24 119.769 21.544C119.769 23.752 121.425 25.192 123.969 25.192C125.841 25.192 127.449 24.304 128.097 22.912V25H130.017V17.2C130.017 14.512 128.049 12.712 124.905 12.712ZM124.257 23.56C122.721 23.56 121.737 22.768 121.737 21.52C121.737 20.104 122.913 19.24 124.713 19.24H128.097V19.552C128.097 22.048 126.681 23.56 124.257 23.56ZM141.185 25H143.609L137.945 17.632L143.129 12.904H140.585L134.897 18.016V7.936H132.953V25H134.897V20.392L136.481 18.952L141.185 25ZM153.784 21.112C153.4 22.624 152.152 23.488 150.184 23.488C147.904 23.488 146.248 21.712 146.104 19.216H155.56C155.584 19.048 155.608 18.64 155.608 18.376C155.608 15.16 153.496 12.712 149.968 12.712C146.416 12.712 144.208 15.328 144.208 18.88C144.208 22.336 146.608 25.192 150.184 25.192C153.184 25.192 155.32 23.584 155.728 21.112H153.784ZM149.968 14.344C152.128 14.344 153.496 15.64 153.64 17.68H146.2C146.56 15.544 147.928 14.344 149.968 14.344ZM164.937 14.608V12.904H163.401C161.625 12.904 160.617 13.696 160.113 15.352V12.904H158.193V25H160.113V19.672C160.113 16.816 160.809 14.608 163.257 14.608H164.937Z" fill="black"/>
<rect x="11.571" y="4.00006" width="16.364" height="16.364" transform="rotate(45 11.571 4.00006)" fill="url(#paint0_linear_3_4)"/>
<rect x="21.1624" y="0.959914" width="15.364" height="20.6634" transform="rotate(45 21.1624 0.959914)" stroke="#352E5B"/>
<path d="M44.376 25.0001H47.88L51.216 13.8161L54.552 25.0001H58.104L63.072 8.20006H59.424L56.184 19.6961L52.728 8.20006H49.68L46.248 19.6961L43.032 8.20006H39.384L44.376 25.0001ZM68.115 12.7121C64.803 12.7121 62.835 14.6561 62.691 17.0801H65.667C65.715 16.0721 66.459 15.1601 67.923 15.1601C69.291 15.1601 70.083 15.8561 70.083 16.8641C70.083 17.3681 69.771 17.7521 69.171 17.7521H67.131C64.491 17.7521 62.715 19.1921 62.715 21.5681C62.715 23.6321 64.323 25.1921 66.675 25.1921C68.331 25.1921 69.675 24.4481 70.083 23.3201V25.0001H73.395V17.2241C73.395 14.4881 71.163 12.7121 68.115 12.7121ZM67.515 22.7681C66.579 22.7681 65.907 22.2161 65.907 21.4241C65.907 20.4881 66.627 19.8641 67.635 19.8641H70.083V20.0321C70.083 21.5681 69.147 22.7681 67.515 22.7681ZM78.4584 25.0001H81.5304L85.9464 12.9041H82.5144L79.9944 20.7281L77.4504 12.9041H74.0424L78.4584 25.0001ZM94.8354 20.8961C94.5714 21.9281 93.6834 22.4561 92.3394 22.4561C90.6594 22.4561 89.5794 21.4001 89.3394 19.6961H98.0274C98.0514 19.4321 98.0754 19.0721 98.0754 18.6161C98.0754 15.8561 96.3714 12.7121 92.0994 12.7121C87.9954 12.7121 86.1234 15.8561 86.1234 18.9281C86.1234 21.9761 88.2354 25.1921 92.3394 25.1921C95.3154 25.1921 97.6194 23.5121 98.0994 20.8961H94.8354ZM92.0994 15.1601C93.7074 15.1601 94.6434 16.2401 94.7394 17.5841H89.3874C89.6754 15.9041 90.5874 15.1601 92.0994 15.1601ZM100.471 25.0001H102.463V11.6081L107.767 25.0001H109.567L114.871 11.6081V25.0001H116.863V8.20006H114.199L108.679 22.2401L103.135 8.20006H100.471V25.0001ZM124.905 12.7121C122.193 12.7121 119.985 14.4401 119.769 16.7681H121.593C121.689 15.4481 123.081 14.3441 124.857 14.3441C126.921 14.3441 128.097 15.4721 128.097 17.1281C128.097 17.5121 127.857 17.7761 127.329 17.7761H124.593C121.665 17.7761 119.769 19.2401 119.769 21.5441C119.769 23.7521 121.425 25.1921 123.969 25.1921C125.841 25.1921 127.449 24.3041 128.097 22.9121V25.0001H130.017V17.2001C130.017 14.5121 128.049 12.7121 124.905 12.7121ZM124.257 23.5601C122.721 23.5601 121.737 22.7681 121.737 21.5201C121.737 20.1041 122.913 19.2401 124.713 19.2401H128.097V19.5521C128.097 22.0481 126.681 23.5601 124.257 23.5601ZM141.185 25.0001H143.609L137.945 17.6321L143.129 12.9041H140.585L134.897 18.0161V7.93606H132.953V25.0001H134.897V20.3921L136.481 18.9521L141.185 25.0001ZM153.784 21.1121C153.4 22.6241 152.152 23.4881 150.184 23.4881C147.904 23.4881 146.248 21.7121 146.104 19.2161H155.56C155.584 19.0481 155.608 18.6401 155.608 18.3761C155.608 15.1601 153.496 12.7121 149.968 12.7121C146.416 12.7121 144.208 15.3281 144.208 18.8801C144.208 22.3361 146.608 25.1921 150.184 25.1921C153.184 25.1921 155.32 23.5841 155.728 21.1121H153.784ZM149.968 14.3441C152.128 14.3441 153.496 15.6401 153.64 17.6801H146.2C146.56 15.5441 147.928 14.3441 149.968 14.3441ZM164.937 14.6081V12.9041H163.401C161.625 12.9041 160.617 13.6961 160.113 15.3521V12.9041H158.193V25.0001H160.113V19.6721C160.113 16.8161 160.809 14.6081 163.257 14.6081H164.937Z" fill="url(#paint1_linear_3_4)"/>
<defs>
<linearGradient id="paint0_linear_3_4" x1="19.753" y1="4.00006" x2="19.753" y2="20.364" gradientUnits="userSpaceOnUse">
<stop stop-color="#9381FF"/>
<stop offset="1" stop-color="#020011"/>
</linearGradient>
<linearGradient id="paint1_linear_3_4" x1="121" y1="-0.999946" x2="65" y2="23.5001" gradientUnits="userSpaceOnUse">
<stop stop-color="#9381FF"/>
<stop offset="1" stop-color="#120E28"/>
</linearGradient>
</defs>
</svg>
